<svg xmlns="http://www.w3.org/2000/svg" xmlns:xlink="http://www.w3.org/1999/xlink" width="300" zoomAndPan="magnify" viewBox="0 0 224.87999 89.999999" height="120" preserveAspectRatio="xMidYMid meet" version="1.0"><defs><g/></defs><g fill="#fdf8f0" fill-opacity="1"><g transform="translate(19.684858, 44.2685)"><g><path d="M 16.203125 0.390625 C 13.398438 0.390625 10.882812 -0.1875 8.65625 -1.34375 C 6.425781 -2.5 4.6875 -4.097656 3.4375 -6.140625 C 2.1875 -8.191406 1.5625 -10.519531 1.5625 -13.125 C 1.5625 -15.726562 2.1875 -18.050781 3.4375 -20.09375 C 4.6875 -22.144531 6.425781 -23.75 8.65625 -24.90625 C 10.882812 -26.0625 13.398438 -26.640625 16.203125 -26.640625 C 18.960938 -26.640625 21.375 -26.0625 23.4375 -24.90625 C 25.5 -23.75 27.003906 -22.097656 27.953125 -19.953125 L 22.046875 -16.78125 C 20.679688 -19.1875 18.710938 -20.390625 16.140625 -20.390625 C 14.160156 -20.390625 12.519531 -19.738281 11.21875 -18.4375 C 9.914062 -17.132812 9.265625 -15.363281 9.265625 -13.125 C 9.265625 -10.875 9.914062 -9.097656 11.21875 -7.796875 C 12.519531 -6.503906 14.160156 -5.859375 16.140625 -5.859375 C 18.742188 -5.859375 20.710938 -7.0625 22.046875 -9.46875 L 27.953125 -6.25 C 27.003906 -4.164062 25.5 -2.535156 23.4375 -1.359375 C 21.375 -0.191406 18.960938 0.390625 16.203125 0.390625 Z M 16.203125 0.390625 "/></g></g></g><g fill="#fdf8f0" fill-opacity="1"><g transform="translate(45.679286, 44.2685)"><g><path d="M 14.09375 -26.640625 C 18.164062 -26.640625 21.289062 -25.671875 23.46875 -23.734375 C 25.644531 -21.796875 26.734375 -18.875 26.734375 -14.96875 L 26.734375 0 L 19.609375 0 L 19.609375 -3.265625 C 18.179688 -0.828125 15.515625 0.390625 11.609375 0.390625 C 9.585938 0.390625 7.835938 0.0507812 6.359375 -0.625 C 4.878906 -1.3125 3.75 -2.253906 2.96875 -3.453125 C 2.195312 -4.660156 1.8125 -6.03125 1.8125 -7.5625 C 1.8125 -10 2.726562 -11.914062 4.5625 -13.3125 C 6.394531 -14.71875 9.234375 -15.421875 13.078125 -15.421875 L 19.125 -15.421875 C 19.125 -17.078125 18.617188 -18.347656 17.609375 -19.234375 C 16.597656 -20.128906 15.085938 -20.578125 13.078125 -20.578125 C 11.671875 -20.578125 10.289062 -20.359375 8.9375 -19.921875 C 7.59375 -19.484375 6.453125 -18.890625 5.515625 -18.140625 L 2.78125 -23.46875 C 4.207031 -24.46875 5.921875 -25.242188 7.921875 -25.796875 C 9.921875 -26.359375 11.976562 -26.640625 14.09375 -26.640625 Z M 13.515625 -4.734375 C 14.816406 -4.734375 15.96875 -5.03125 16.96875 -5.625 C 17.976562 -6.226562 18.695312 -7.117188 19.125 -8.296875 L 19.125 -10.96875 L 13.90625 -10.96875 C 10.78125 -10.96875 9.21875 -9.945312 9.21875 -7.90625 C 9.21875 -6.925781 9.597656 -6.148438 10.359375 -5.578125 C 11.128906 -5.015625 12.179688 -4.734375 13.515625 -4.734375 Z M 13.515625 -4.734375 "/></g></g></g><g fill="#fdf8f0" fill-opacity="1"><g transform="translate(72.941762, 44.2685)"><g><path d="M 37.125 -26.640625 C 40.40625 -26.640625 43.015625 -25.671875 44.953125 -23.734375 C 46.890625 -21.796875 47.859375 -18.894531 47.859375 -15.03125 L 47.859375 0 L 40.25 0 L 40.25 -13.859375 C 40.25 -15.929688 39.816406 -17.476562 38.953125 -18.5 C 38.085938 -19.53125 36.859375 -20.046875 35.265625 -20.046875 C 33.472656 -20.046875 32.054688 -19.46875 31.015625 -18.3125 C 29.984375 -17.15625 29.46875 -15.441406 29.46875 -13.171875 L 29.46875 0 L 21.859375 0 L 21.859375 -13.859375 C 21.859375 -17.984375 20.195312 -20.046875 16.875 -20.046875 C 15.125 -20.046875 13.726562 -19.46875 12.6875 -18.3125 C 11.644531 -17.15625 11.125 -15.441406 11.125 -13.171875 L 11.125 0 L 3.515625 0 L 3.515625 -26.25 L 10.78125 -26.25 L 10.78125 -23.21875 C 11.757812 -24.320312 12.953125 -25.164062 14.359375 -25.75 C 15.773438 -26.34375 17.332031 -26.640625 19.03125 -26.640625 C 20.882812 -26.640625 22.554688 -26.269531 24.046875 -25.53125 C 25.546875 -24.800781 26.75 -23.738281 27.65625 -22.34375 C 28.726562 -23.707031 30.085938 -24.765625 31.734375 -25.515625 C 33.378906 -26.265625 35.175781 -26.640625 37.125 -26.640625 Z M 37.125 -26.640625 "/></g></g></g><g fill="#fdf8f0" fill-opacity="1"><g transform="translate(121.273313, 44.2685)"><g><path d="M 19.03125 -26.640625 C 21.46875 -26.640625 23.6875 -26.078125 25.6875 -24.953125 C 27.6875 -23.828125 29.253906 -22.25 30.390625 -20.21875 C 31.523438 -18.1875 32.09375 -15.820312 32.09375 -13.125 C 32.09375 -10.425781 31.523438 -8.054688 30.390625 -6.015625 C 29.253906 -3.984375 27.6875 -2.40625 25.6875 -1.28125 C 23.6875 -0.164062 21.46875 0.390625 19.03125 0.390625 C 15.414062 0.390625 12.664062 -0.75 10.78125 -3.03125 L 10.78125 0 L 3.515625 0 L 3.515625 -36.203125 L 11.125 -36.203125 L 11.125 -23.46875 C 13.039062 -25.582031 15.675781 -26.640625 19.03125 -26.640625 Z M 17.703125 -5.859375 C 19.660156 -5.859375 21.265625 -6.515625 22.515625 -7.828125 C 23.765625 -9.148438 24.390625 -10.914062 24.390625 -13.125 C 24.390625 -15.332031 23.765625 -17.09375 22.515625 -18.40625 C 21.265625 -19.726562 19.660156 -20.390625 17.703125 -20.390625 C 15.753906 -20.390625 14.15625 -19.726562 12.90625 -18.40625 C 11.65625 -17.09375 11.03125 -15.332031 11.03125 -13.125 C 11.03125 -10.914062 11.65625 -9.148438 12.90625 -7.828125 C 14.15625 -6.515625 15.753906 -5.859375 17.703125 -5.859375 Z M 17.703125 -5.859375 "/></g></g></g><g fill="#fdf8f0" fill-opacity="1"><g transform="translate(152.096065, 44.2685)"><g><path d="M 16 0.390625 C 13.238281 0.390625 10.757812 -0.1875 8.5625 -1.34375 C 6.363281 -2.5 4.644531 -4.097656 3.40625 -6.140625 C 2.175781 -8.191406 1.5625 -10.519531 1.5625 -13.125 C 1.5625 -15.726562 2.175781 -18.050781 3.40625 -20.09375 C 4.644531 -22.144531 6.363281 -23.75 8.5625 -24.90625 C 10.757812 -26.0625 13.238281 -26.640625 16 -26.640625 C 18.757812 -26.640625 21.226562 -26.0625 23.40625 -24.90625 C 25.59375 -23.75 27.300781 -22.144531 28.53125 -20.09375 C 29.769531 -18.050781 30.390625 -15.726562 30.390625 -13.125 C 30.390625 -10.519531 29.769531 -8.191406 28.53125 -6.140625 C 27.300781 -4.097656 25.59375 -2.5 23.40625 -1.34375 C 21.226562 -0.1875 18.757812 0.390625 16 0.390625 Z M 16 -5.859375 C 17.945312 -5.859375 19.546875 -6.515625 20.796875 -7.828125 C 22.054688 -9.148438 22.6875 -10.914062 22.6875 -13.125 C 22.6875 -15.332031 22.054688 -17.09375 20.796875 -18.40625 C 19.546875 -19.726562 17.945312 -20.390625 16 -20.390625 C 14.050781 -20.390625 12.441406 -19.726562 11.171875 -18.40625 C 9.898438 -17.09375 9.265625 -15.332031 9.265625 -13.125 C 9.265625 -10.914062 9.898438 -9.148438 11.171875 -7.828125 C 12.441406 -6.515625 14.050781 -5.859375 16 -5.859375 Z M 16 -5.859375 "/></g></g></g><g fill="#fdf8f0" fill-opacity="1"><g transform="translate(45.353641, 73.487046)"><g><path d="M 29.21875 -13.03125 C 29.21875 -12.925781 29.171875 -12.238281 29.078125 -10.96875 L 9.21875 -10.96875 C 9.570312 -9.34375 10.414062 -8.054688 11.75 -7.109375 C 13.082031 -6.171875 14.742188 -5.703125 16.734375 -5.703125 C 18.097656 -5.703125 19.304688 -5.90625 20.359375 -6.3125 C 21.421875 -6.71875 22.40625 -7.363281 23.3125 -8.25 L 27.359375 -3.859375 C 24.890625 -1.023438 21.28125 0.390625 16.53125 0.390625 C 13.570312 0.390625 10.953125 -0.1875 8.671875 -1.34375 C 6.398438 -2.5 4.644531 -4.097656 3.40625 -6.140625 C 2.175781 -8.191406 1.5625 -10.519531 1.5625 -13.125 C 1.5625 -15.6875 2.171875 -18 3.390625 -20.0625 C 4.609375 -22.132812 6.28125 -23.75 8.40625 -24.90625 C 10.539062 -26.0625 12.925781 -26.640625 15.5625 -26.640625 C 18.132812 -26.640625 20.457031 -26.082031 22.53125 -24.96875 C 24.613281 -23.863281 26.25 -22.28125 27.4375 -20.21875 C 28.625 -18.15625 29.21875 -15.757812 29.21875 -13.03125 Z M 15.609375 -20.875 C 13.890625 -20.875 12.441406 -20.382812 11.265625 -19.40625 C 10.097656 -18.4375 9.382812 -17.109375 9.125 -15.421875 L 22.046875 -15.421875 C 21.785156 -17.078125 21.066406 -18.398438 19.890625 -19.390625 C 18.722656 -20.378906 17.296875 -20.875 15.609375 -20.875 Z M 15.609375 -20.875 "/></g></g></g><g fill="#fdf8f0" fill-opacity="1"><g transform="translate(73.298911, 73.487046)"><g><path d="M 29.5625 -26.25 L 18.484375 0 L 10.640625 0 L -0.390625 -26.25 L 7.46875 -26.25 L 14.734375 -8.390625 L 22.25 -26.25 Z M 29.5625 -26.25 "/></g></g></g><g fill="#fdf8f0" fill-opacity="1"><g transform="translate(99.634736, 73.487046)"><g><path d="M 29.21875 -13.03125 C 29.21875 -12.925781 29.171875 -12.238281 29.078125 -10.96875 L 9.21875 -10.96875 C 9.570312 -9.34375 10.414062 -8.054688 11.75 -7.109375 C 13.082031 -6.171875 14.742188 -5.703125 16.734375 -5.703125 C 18.097656 -5.703125 19.304688 -5.90625 20.359375 -6.3125 C 21.421875 -6.71875 22.40625 -7.363281 23.3125 -8.25 L 27.359375 -3.859375 C 24.890625 -1.023438 21.28125 0.390625 16.53125 0.390625 C 13.570312 0.390625 10.953125 -0.1875 8.671875 -1.34375 C 6.398438 -2.5 4.644531 -4.097656 3.40625 -6.140625 C 2.175781 -8.191406 1.5625 -10.519531 1.5625 -13.125 C 1.5625 -15.6875 2.171875 -18 3.390625 -20.0625 C 4.609375 -22.132812 6.28125 -23.75 8.40625 -24.90625 C 10.539062 -26.0625 12.925781 -26.640625 15.5625 -26.640625 C 18.132812 -26.640625 20.457031 -26.082031 22.53125 -24.96875 C 24.613281 -23.863281 26.25 -22.28125 27.4375 -20.21875 C 28.625 -18.15625 29.21875 -15.757812 29.21875 -13.03125 Z M 15.609375 -20.875 C 13.890625 -20.875 12.441406 -20.382812 11.265625 -19.40625 C 10.097656 -18.4375 9.382812 -17.109375 9.125 -15.421875 L 22.046875 -15.421875 C 21.785156 -17.078125 21.066406 -18.398438 19.890625 -19.390625 C 18.722656 -20.378906 17.296875 -20.875 15.609375 -20.875 Z M 15.609375 -20.875 "/></g></g></g><g fill="#fdf8f0" fill-opacity="1"><g transform="translate(127.580002, 73.487046)"><g><path d="M 19.46875 -26.640625 C 22.71875 -26.640625 25.34375 -25.660156 27.34375 -23.703125 C 29.34375 -21.753906 30.34375 -18.863281 30.34375 -15.03125 L 30.34375 0 L 22.734375 0 L 22.734375 -13.859375 C 22.734375 -15.929688 22.273438 -17.476562 21.359375 -18.5 C 20.453125 -19.53125 19.140625 -20.046875 17.421875 -20.046875 C 15.492188 -20.046875 13.960938 -19.453125 12.828125 -18.265625 C 11.691406 -17.078125 11.125 -15.3125 11.125 -12.96875 L 11.125 0 L 3.515625 0 L 3.515625 -26.25 L 10.78125 -26.25 L 10.78125 -23.171875 C 11.789062 -24.273438 13.039062 -25.128906 14.53125 -25.734375 C 16.03125 -26.335938 17.675781 -26.640625 19.46875 -26.640625 Z M 19.46875 -26.640625 "/></g></g></g><g fill="#fdf8f0" fill-opacity="1"><g transform="translate(158.451533, 73.487046)"><g><path d="M 20.4375 -1.265625 C 19.6875 -0.710938 18.765625 -0.296875 17.671875 -0.015625 C 16.585938 0.253906 15.445312 0.390625 14.25 0.390625 C 11.125 0.390625 8.707031 -0.40625 7 -2 C 5.289062 -3.59375 4.4375 -5.9375 4.4375 -9.03125 L 4.4375 -19.8125 L 0.390625 -19.8125 L 0.390625 -25.65625 L 4.4375 -25.65625 L 4.4375 -32.046875 L 12.046875 -32.046875 L 12.046875 -25.65625 L 18.578125 -25.65625 L 18.578125 -19.8125 L 12.046875 -19.8125 L 12.046875 -9.125 C 12.046875 -8.019531 12.328125 -7.164062 12.890625 -6.5625 C 13.460938 -5.957031 14.269531 -5.65625 15.3125 -5.65625 C 16.519531 -5.65625 17.546875 -5.984375 18.390625 -6.640625 Z M 20.4375 -1.265625 "/></g></g></g><g fill="#fdf8f0" fill-opacity="1"><g transform="translate(176.83769, 73.487046)"><g><path d="M 12.34375 0.390625 C 10.164062 0.390625 8.035156 0.125 5.953125 -0.40625 C 3.867188 -0.945312 2.207031 -1.625 0.96875 -2.4375 L 3.515625 -7.90625 C 4.679688 -7.15625 6.09375 -6.539062 7.75 -6.0625 C 9.414062 -5.59375 11.046875 -5.359375 12.640625 -5.359375 C 15.859375 -5.359375 17.46875 -6.15625 17.46875 -7.75 C 17.46875 -8.5 17.023438 -9.035156 16.140625 -9.359375 C 15.265625 -9.691406 13.914062 -9.96875 12.09375 -10.1875 C 9.945312 -10.519531 8.175781 -10.894531 6.78125 -11.3125 C 5.382812 -11.738281 4.171875 -12.488281 3.140625 -13.5625 C 2.117188 -14.632812 1.609375 -16.160156 1.609375 -18.140625 C 1.609375 -19.804688 2.085938 -21.28125 3.046875 -22.5625 C 4.003906 -23.84375 5.398438 -24.84375 7.234375 -25.5625 C 9.078125 -26.28125 11.25 -26.640625 13.75 -26.640625 C 15.601562 -26.640625 17.445312 -26.4375 19.28125 -26.03125 C 21.125 -25.625 22.648438 -25.0625 23.859375 -24.34375 L 21.3125 -18.921875 C 19.007812 -20.222656 16.488281 -20.875 13.75 -20.875 C 12.125 -20.875 10.90625 -20.644531 10.09375 -20.1875 C 9.28125 -19.738281 8.875 -19.15625 8.875 -18.4375 C 8.875 -17.625 9.3125 -17.054688 10.1875 -16.734375 C 11.070312 -16.410156 12.472656 -16.101562 14.390625 -15.8125 C 16.535156 -15.445312 18.289062 -15.0625 19.65625 -14.65625 C 21.019531 -14.25 22.207031 -13.507812 23.21875 -12.4375 C 24.226562 -11.363281 24.734375 -9.867188 24.734375 -7.953125 C 24.734375 -6.328125 24.242188 -4.878906 23.265625 -3.609375 C 22.296875 -2.335938 20.875 -1.351562 19 -0.65625 C 17.132812 0.0390625 14.914062 0.390625 12.34375 0.390625 Z M 12.34375 0.390625 "/></g></g></g></svg>