<svg xmlns="http://www.w3.org/2000/svg" xmlns:xlink="http://www.w3.org/1999/xlink" width="300" zoomAndPan="magnify" viewBox="0 0 224.87999 89.999999" height="120" preserveAspectRatio="xMidYMid meet" version="1.0"><defs><clipPath id="1c9c265e3b"><path d="M 10 0.0234375 L 193 0.0234375 L 193 56 L 10 56 Z M 10 0.0234375 " clip-rule="nonzero"/></clipPath><clipPath id="dc070b9038"><path d="M 40 37 L 216 37 L 216 89.976562 L 40 89.976562 Z M 40 37 " clip-rule="nonzero"/></clipPath></defs><g clip-path="url(#1c9c265e3b)"><path stroke-linecap="butt" transform="matrix(0.61335, 0.000000000000000005, -0.000000000000000005, 0.61335, 19.684858, -6.026238)" fill="none" stroke-linejoin="miter" d="M 26.40897 82.638552 C 21.848975 82.638552 17.753896 81.702351 14.117364 79.823583 C 10.480831 77.938445 7.634019 75.320906 5.589664 71.983703 C 3.558046 68.640131 2.545421 64.85075 2.545421 60.602822 C 2.545421 56.354894 3.558046 52.565513 5.589664 49.221941 C 7.634019 45.884738 10.480831 43.279936 14.117364 41.401168 C 17.753896 39.522399 21.848975 38.586199 26.40897 38.586199 C 30.911646 38.586199 34.847508 39.522399 38.210186 41.401168 C 41.579232 43.279936 44.031185 45.967531 45.572412 49.476689 L 35.942926 54.641711 C 33.713878 50.718587 30.510418 48.757025 26.326177 48.757025 C 23.090873 48.757025 20.416016 49.820599 18.288867 51.941379 C 16.168088 54.068528 15.104513 56.953552 15.104513 60.602822 C 15.104513 64.264829 16.168088 67.156223 18.288867 69.283371 C 20.416016 71.391413 23.090873 72.448619 26.326177 72.448619 C 30.561368 72.448619 33.764828 70.487057 35.942926 66.563933 L 45.572412 71.824485 C 44.031185 75.219007 41.579232 77.868389 38.210186 79.78537 C 34.847508 81.689614 30.911646 82.638552 26.40897 82.638552 Z M 65.372725 38.586199 C 71.996181 38.586199 77.084779 40.165638 80.632149 43.324517 C 84.192257 46.470659 85.969127 51.221715 85.969127 57.590423 L 85.969127 82.001681 L 74.358972 82.001681 L 74.358972 76.677441 C 72.015288 80.651515 67.66546 82.638552 61.309489 82.638552 C 58.023236 82.638552 55.170055 82.084474 52.749946 80.96995 C 50.342574 79.855426 48.502018 78.326936 47.234645 76.371743 C 45.967272 74.403812 45.330401 72.168396 45.330401 69.671862 C 45.330401 65.697788 46.827048 62.570753 49.82034 60.290755 C 52.807264 58.017127 57.437315 56.877128 63.697755 56.877128 L 73.562884 56.877128 C 73.562884 54.170427 72.74132 52.08786 71.098194 50.623057 C 69.455067 49.158254 66.990377 48.425852 63.697755 48.425852 C 61.424126 48.425852 59.182341 48.788869 56.985137 49.514901 C 54.781564 50.228197 52.909164 51.189872 51.367936 52.406295 L 46.903472 43.751221 C 49.247157 42.108094 52.049388 40.834353 55.310167 39.942733 C 58.577314 39.038377 61.927254 38.586199 65.372725 38.586199 Z M 64.417419 74.289175 C 66.53183 74.289175 68.40423 73.798785 70.047357 72.818004 C 71.690483 71.830854 72.862326 70.391526 73.562884 68.487282 L 73.562884 64.099243 L 65.041552 64.099243 C 59.952955 64.099243 57.41184 65.767844 57.41184 69.105047 C 57.41184 70.697224 58.029605 71.964597 59.271503 72.894428 C 60.526138 73.82426 62.24569 74.289175 64.417419 74.289175 Z M 147.350734 38.586199 C 152.706817 38.586199 156.961114 40.165638 160.107256 43.324517 C 163.266135 46.470659 164.845574 51.189872 164.845574 57.494893 L 164.845574 82.001681 L 152.439331 82.001681 L 152.439331 59.418242 C 152.439331 56.03009 151.732405 53.495344 150.318552 51.826742 C 148.923805 50.158141 146.92403 49.32384 144.319229 49.32384 C 141.408729 49.32384 139.103257 50.26004 137.409181 52.138809 C 135.715104 54.011209 134.868066 56.813441 134.868066 60.526398 L 134.868066 82.001681 L 122.461823 82.001681 L 122.461823 59.418242 C 122.461823 52.686518 119.755122 49.32384 114.341721 49.32384 C 111.482171 49.32384 109.202173 50.26004 107.508097 52.138809 C 105.814021 54.011209 104.966982 56.813441 104.966982 60.526398 L 104.966982 82.001681 L 92.554371 82.001681 L 92.554371 39.203963 L 104.400167 39.203963 L 104.400167 44.139712 C 105.992344 42.337368 107.941169 40.968095 110.246641 40.019158 C 112.552114 39.063852 115.080491 38.586199 117.838141 38.586199 C 120.869646 38.586199 123.595453 39.178489 126.0283 40.369437 C 128.480252 41.560385 130.441814 43.299043 131.912986 45.572671 C 133.677118 43.349992 135.887059 41.624072 138.555548 40.407649 C 141.236774 39.191226 144.16638 38.586199 147.350734 38.586199 Z M 196.638165 38.586199 C 200.624976 38.586199 204.242402 39.496924 207.490443 41.324743 C 210.751221 43.146194 213.311442 45.719152 215.158367 49.03088 C 217.024399 52.342608 217.95423 56.202045 217.95423 60.602822 C 217.95423 65.003599 217.024399 68.863036 215.158367 72.174764 C 213.311442 75.486492 210.751221 78.065819 207.490443 79.900007 C 204.242402 81.727826 200.624976 82.638552 196.638165 82.638552 C 190.759847 82.638552 186.282645 80.785258 183.200191 77.065932 L 183.200191 82.001681 L 171.354394 82.001681 L 171.354394 22.995602 L 183.760637 22.995602 L 183.760637 43.751221 C 186.894041 40.30575 191.186551 38.586199 196.638165 38.586199 Z M 194.498279 72.448619 C 197.682633 72.448619 200.293803 71.378676 202.325421 69.245159 C 204.369776 67.092535 205.395138 64.213879 205.395138 60.602822 C 205.395138 57.004502 204.369776 54.132215 202.325421 51.979591 C 200.293803 49.833337 197.682633 48.757025 194.498279 48.757025 C 191.313925 48.757025 188.702754 49.833337 186.658399 51.979591 C 184.626781 54.132215 183.607788 57.004502 183.607788 60.602822 C 183.607788 64.213879 184.626781 67.092535 186.658399 69.245159 C 188.702754 71.378676 191.313925 72.448619 194.498279 72.448619 Z M 241.95789 82.638552 C 237.455214 82.638552 233.411084 81.702351 229.825502 79.823583 C 226.252656 77.938445 223.456794 75.320906 221.437913 71.983703 C 219.425402 68.640131 218.425514 64.85075 218.425514 60.602822 C 218.425514 56.354894 219.425402 52.565513 221.437913 49.221941 C 223.456794 45.884738 226.252656 43.279936 229.825502 41.401168 C 233.411084 39.522399 237.455214 38.586199 241.95789 38.586199 C 246.473304 38.586199 250.511065 39.522399 254.052067 41.401168 C 257.612174 43.279936 260.3953 45.884738 262.401443 49.221941 C 264.420323 52.565513 265.432948 56.354894 265.432948 60.602822 C 265.432948 64.85075 264.420323 68.640131 262.401443 71.983703 C 260.3953 75.320906 257.612174 77.938445 254.052067 79.823583 C 250.511065 81.702351 246.473304 82.638552 241.95789 82.638552 Z M 241.95789 72.448619 C 245.142244 72.448619 247.759783 71.378676 249.804138 69.245159 C 251.848494 67.092535 252.867487 64.213879 252.867487 60.602822 C 252.867487 57.004502 251.848494 54.132215 249.804138 51.979591 C 247.759783 49.833337 245.142244 48.757025 241.95789 48.757025 C 238.786274 48.757025 236.168735 49.833337 234.092536 51.979591 C 232.022706 54.132215 230.990975 57.004502 230.990975 60.602822 C 230.990975 64.213879 232.022706 67.092535 234.092536 69.245159 C 236.168735 71.378676 238.786274 72.448619 241.95789 72.448619 Z M 241.95789 72.448619 " stroke="#fdf8f0" stroke-width="2.982375" stroke-opacity="1" stroke-miterlimit="4"/></g><g clip-path="url(#dc070b9038)"><path stroke-linecap="butt" transform="matrix(0.61335, 0, 0, 0.61335, 49.325033, 29.784387)" fill="none" stroke-linejoin="miter" d="M 47.630238 60.758727 C 47.630238 60.924314 47.553814 62.038838 47.394596 64.09593 L 15.028823 64.09593 C 15.608375 66.751681 16.990385 68.846986 19.162114 70.388214 C 21.340212 71.929441 24.046913 72.700055 27.282217 72.700055 C 29.504896 72.700055 31.479195 72.368882 33.205115 71.706536 C 34.924666 71.037822 36.529581 69.986985 38.019858 68.566763 L 44.61784 75.706085 C 40.592816 80.329767 34.70813 82.641608 26.97015 82.641608 C 22.142669 82.641608 17.869266 81.705408 14.15631 79.826639 C 10.436984 77.935133 7.571066 75.317594 5.552185 71.980391 C 3.546042 68.643188 2.546155 64.847438 2.546155 60.605878 C 2.546155 56.421637 3.533305 52.651362 5.513973 49.282315 C 7.507378 45.9069 10.239554 43.276624 13.7105 41.397855 C 17.187814 39.525455 21.079095 38.582886 25.377973 38.582886 C 29.555845 38.582886 33.345227 39.487243 36.733379 41.283218 C 40.127901 43.085563 42.79002 45.664889 44.71337 49.033936 C 46.655826 52.396614 47.630238 56.307 47.630238 60.758727 Z M 25.454397 47.963993 C 22.645797 47.963993 20.283007 48.760081 18.366025 50.352258 C 16.468151 51.944435 15.302677 54.116165 14.875974 56.873815 L 35.937291 56.873815 C 35.523325 54.167114 34.357851 52.008122 32.447239 50.390471 C 30.542995 48.772819 28.212048 47.963993 25.454397 47.963993 Z M 93.752421 39.20702 L 75.697134 81.998368 L 62.9024 81.998368 L 44.923538 39.20702 L 57.737378 39.20702 L 69.576806 68.312015 L 81.8302 39.20702 Z M 136.129804 60.758727 C 136.129804 60.924314 136.05338 62.038838 135.894162 64.09593 L 103.528388 64.09593 C 104.107941 66.751681 105.48995 68.846986 107.66168 70.388214 C 109.839778 71.929441 112.546479 72.700055 115.781782 72.700055 C 118.004461 72.700055 119.978761 72.368882 121.704681 71.706536 C 123.424232 71.037822 125.029146 69.986985 126.519424 68.566763 L 133.117405 75.706085 C 129.092382 80.329767 123.207696 82.641608 115.469715 82.641608 C 110.642235 82.641608 106.368832 81.705408 102.655875 79.826639 C 98.93655 77.935133 96.070631 75.317594 94.051751 71.980391 C 92.045608 68.643188 91.045721 64.847438 91.045721 60.605878 C 91.045721 56.421637 92.03287 52.651362 94.013538 49.282315 C 96.006944 45.9069 98.73912 43.276624 102.210066 41.397855 C 105.68738 39.525455 109.578661 38.582886 113.877539 38.582886 C 118.055411 38.582886 121.844792 39.487243 125.232945 41.283218 C 128.627466 43.085563 131.289586 45.664889 133.212936 49.033936 C 135.155392 52.396614 136.129804 56.307 136.129804 60.758727 Z M 113.953963 47.963993 C 111.145363 47.963993 108.782572 48.760081 106.865591 50.352258 C 104.961347 51.944435 103.802243 54.116165 103.36917 56.873815 L 124.436856 56.873815 C 124.02289 54.167114 122.857417 52.008122 120.946804 50.390471 C 119.042561 48.772819 116.711614 47.963993 113.953963 47.963993 Z M 165.788877 38.582886 C 171.094011 38.582886 175.380151 40.175063 178.64093 43.359417 C 181.901708 46.531034 183.532097 51.243878 183.532097 57.497949 L 183.532097 81.998368 L 171.125854 81.998368 L 171.125854 59.421299 C 171.125854 56.026777 170.380715 53.4984 168.896806 51.829799 C 167.406529 50.154828 165.253905 49.320528 162.445305 49.320528 C 159.331007 49.320528 156.834474 50.29494 154.974811 52.237396 C 153.121517 54.160746 152.198054 57.033033 152.198054 60.835152 L 152.198054 81.998368 L 139.791811 81.998368 L 139.791811 39.20702 L 151.631239 39.20702 L 151.631239 44.212824 C 153.274366 42.416848 155.318721 41.02847 157.751568 40.060426 C 160.197151 39.079645 162.872009 38.582886 165.788877 38.582886 Z M 217.712953 79.941276 C 216.49653 80.832895 214.999883 81.507978 213.229382 81.960156 C 211.452513 82.412334 209.580113 82.641608 207.618551 82.641608 C 202.529953 82.641608 198.594092 81.342391 195.810966 78.73759 C 193.027841 76.139157 191.633094 72.317932 191.633094 67.280284 L 191.633094 49.709019 L 185.035112 49.709019 L 185.035112 40.175063 L 191.633094 40.175063 L 191.633094 29.749488 L 204.045706 29.749488 L 204.045706 40.175063 L 214.700554 40.175063 L 214.700554 49.709019 L 204.045706 49.709019 L 204.045706 67.127435 C 204.045706 68.923411 204.504253 70.318158 205.421346 71.298939 C 206.351178 72.286089 207.6695 72.776479 209.363577 72.776479 C 211.331507 72.776479 213.000109 72.247876 214.37575 71.184302 Z M 234.48813 82.641608 C 230.940759 82.641608 227.469813 82.208536 224.075292 81.342391 C 220.687139 80.457141 217.980439 79.355354 215.961558 78.017926 L 220.101218 69.108103 C 221.999093 70.337264 224.304566 71.330782 227.011266 72.095027 C 229.717967 72.859272 232.36735 73.241395 234.972151 73.241395 C 240.213598 73.241395 242.837506 71.948547 242.837506 69.362852 C 242.837506 68.14006 242.117842 67.267547 240.678514 66.738944 C 239.258292 66.210341 237.061088 65.751794 234.099638 65.382409 C 230.59048 64.847438 227.699087 64.24241 225.419089 63.55459 C 223.139092 62.854032 221.164793 61.63124 219.496191 59.886214 C 217.82759 58.13482 216.993289 55.644655 216.993289 52.409351 C 216.993289 49.70265 217.77664 47.308016 219.343342 45.225449 C 220.910044 43.130144 223.183673 41.499754 226.176966 40.334281 C 229.176627 39.168807 232.717629 38.582886 236.793602 38.582886 C 239.825107 38.582886 242.837506 38.914059 245.82443 39.576405 C 248.817722 40.232382 251.29515 41.149475 253.263081 42.314949 L 249.12342 51.148347 C 245.359514 49.021198 241.251697 47.963993 236.793602 47.963993 C 234.144219 47.963993 232.150814 48.339747 230.813385 49.091254 C 229.495063 49.830024 228.832717 50.778962 228.832717 51.944435 C 228.832717 53.262758 229.552381 54.186221 230.991709 54.721192 C 232.424668 55.249795 234.704666 55.752923 237.825333 56.236945 C 241.334491 56.816497 244.200409 57.44063 246.429457 58.096607 C 248.652136 58.758953 250.588223 59.969007 252.23135 61.726771 C 253.874477 63.478166 254.69604 65.911012 254.69604 69.031679 C 254.69604 71.681061 253.899951 74.043852 252.307774 76.113682 C 250.715597 78.189881 248.397388 79.794795 245.340408 80.934794 C 242.296165 82.068424 238.678739 82.641608 234.48813 82.641608 Z M 234.48813 82.641608 " stroke="#fdf8f0" stroke-width="2.982375" stroke-opacity="1" stroke-miterlimit="4"/></g></svg>